<svg width="240" height="192" viewBox="0 0 240 192" fill="none" xmlns="http://www.w3.org/2000/svg">
<g opacity="0.15">
<path d="M146.25 218.75V162.5C146.25 156.666 146.25 153.749 145.115 151.521C144.116 149.561 142.522 147.967 140.562 146.969C138.334 145.833 135.417 145.833 129.583 145.833H100.417C94.5828 145.833 91.6658 145.833 89.4376 146.969C87.4776 147.967 85.884 149.561 84.8854 151.521C83.75 153.749 83.75 156.666 83.75 162.5V218.75M21.25 72.9167C21.25 90.1756 35.2411 104.167 52.5 104.167C69.7589 104.167 83.75 90.1756 83.75 72.9167C83.75 90.1756 97.7411 104.167 115 104.167C132.259 104.167 146.25 90.1756 146.25 72.9167C146.25 90.1756 160.241 104.167 177.5 104.167C194.759 104.167 208.75 90.1756 208.75 72.9167M54.5833 218.75H175.417C187.084 218.75 192.918 218.75 197.375 216.479C201.295 214.482 204.482 211.295 206.479 207.375C208.75 202.918 208.75 197.084 208.75 185.417V64.5833C208.75 52.9156 208.75 47.0817 206.479 42.6252C204.482 38.7052 201.295 35.5181 197.375 33.5207C192.918 31.25 187.084 31.25 175.417 31.25H54.5833C42.9156 31.25 37.0817 31.25 32.6252 33.5207C28.7052 35.5181 25.5181 38.7052 23.5207 42.6252C21.25 47.0817 21.25 52.9156 21.25 64.5833V185.417C21.25 197.084 21.25 202.918 23.5207 207.375C25.5181 211.295 28.7052 214.482 32.6252 216.479C37.0817 218.75 42.9156 218.75 54.5833 218.75Z" stroke="#26C165" stroke-width="2" stroke-linecap="round" stroke-linejoin="round"/>
</g>
</svg>
