<svg width="227" height="229" viewBox="0 0 227 229" fill="none" xmlns="http://www.w3.org/2000/svg">
<g opacity="0.1">
<path d="M117.932 75.9987C111.97 80.2496 104.673 82.7502 96.7918 82.7502C76.6564 82.7502 60.3335 66.4272 60.3335 46.2918C60.3335 26.1564 76.6564 9.8335 96.7918 9.8335C109.844 9.8335 121.294 16.692 127.735 27.0016M39.5002 198.241H66.6907C70.2359 198.241 73.7594 198.663 77.1961 199.507L105.926 206.488C112.16 208.007 118.654 208.155 124.953 206.931L156.719 200.751C165.11 199.117 172.829 195.099 178.879 189.214L201.353 167.351C207.771 161.118 207.771 151.005 201.353 144.761C195.575 139.14 186.424 138.507 179.887 143.274L153.694 162.384C149.943 165.126 145.378 166.603 140.684 166.603H115.391L131.49 166.602C140.565 166.602 147.915 159.451 147.915 150.624V147.429C147.915 140.099 142.787 133.708 135.48 131.936L110.631 125.893C106.587 124.912 102.446 124.417 98.2829 124.417C88.2328 124.417 70.0407 132.738 70.0407 132.738L39.5002 145.509M185.333 56.7085C185.333 76.8439 169.011 93.1668 148.875 93.1668C128.74 93.1668 112.417 76.8439 112.417 56.7085C112.417 36.5731 128.74 20.2502 148.875 20.2502C169.011 20.2502 185.333 36.5731 185.333 56.7085ZM-2.1665 141.083L-2.1665 201.5C-2.1665 207.334 -2.1665 210.251 -1.03116 212.479C-0.0324754 214.439 1.56107 216.033 3.52109 217.031C5.74934 218.167 8.66628 218.167 14.5002 218.167H22.8335C28.6674 218.167 31.5843 218.167 33.8126 217.031C35.7726 216.033 37.3661 214.439 38.3648 212.479C39.5002 210.251 39.5002 207.334 39.5002 201.5V141.083C39.5002 135.25 39.5002 132.333 38.3648 130.104C37.3661 128.144 35.7726 126.551 33.8126 125.552C31.5843 124.417 28.6674 124.417 22.8335 124.417L14.5002 124.417C8.66629 124.417 5.74934 124.417 3.5211 125.552C1.56107 126.551 -0.032473 128.144 -1.03115 130.104C-2.1665 132.333 -2.1665 135.25 -2.1665 141.083Z" stroke="#073042" stroke-width="2" stroke-linecap="round" stroke-linejoin="round"/>
</g>
</svg>
