<svg width="279" height="229" viewBox="0 0 279 229" fill="none" xmlns="http://www.w3.org/2000/svg">
<g opacity="0.15" clip-path="url(#clip0_1985_6508)">
<path d="M215.625 13.375H168.75L115.242 65.2773C114.247 66.2715 113.489 67.4768 113.024 68.8038C112.558 70.1309 112.397 71.5457 112.552 72.9434C112.707 74.3412 113.175 75.6861 113.921 76.8786C114.666 78.071 115.671 79.0804 116.859 79.832C137.379 92.9453 165.234 92.043 187.5 69.625L234.375 107.125L253.125 88.375" stroke="#FF7600" stroke-width="2" stroke-linecap="round" stroke-linejoin="round"/>
<path d="M234.375 107.125L187.5 154L112.5 135.25L46.875 88.375" stroke="#FF7600" stroke-width="2" stroke-linecap="round" stroke-linejoin="round"/>
<path d="M65.625 154L93.75 172.75L131.25 182.125" stroke="#FF7600" stroke-width="2" stroke-linecap="round" stroke-linejoin="round"/>
<path d="M84.375 13.375L150 -5.375L215.625 13.375" stroke="#FF7600" stroke-width="2" stroke-linecap="round" stroke-linejoin="round"/>
<path d="M42.6797 3.01587L13.5703 61.2346C13.0186 62.3363 12.6894 63.536 12.6017 64.765C12.5139 65.9941 12.6693 67.2283 13.059 68.3972C13.4486 69.5662 14.0649 70.6468 14.8725 71.5774C15.6801 72.508 16.6632 73.2702 17.7656 73.8206L46.875 88.3752L84.375 13.3752L55.2656 -1.17944C54.1639 -1.73118 52.9642 -2.06034 51.7352 -2.14808C50.5062 -2.23582 49.2719 -2.08042 48.103 -1.69078C46.9341 -1.30114 45.8534 -0.684893 44.9228 0.122714C43.9923 0.930321 43.23 1.91345 42.6797 3.01587Z" stroke="#FF7600" stroke-width="2" stroke-linecap="round" stroke-linejoin="round"/>
<path d="M244.734 -1.17944L215.625 13.3752L253.125 88.3752L282.234 73.8206C283.337 73.2702 284.32 72.508 285.128 71.5774C285.935 70.6468 286.551 69.5662 286.941 68.3972C287.331 67.2283 287.486 65.9941 287.398 64.765C287.311 63.536 286.981 62.3363 286.43 61.2346L257.32 3.01587C256.77 1.91345 256.008 0.930321 255.077 0.122714C254.147 -0.684893 253.066 -1.30114 251.897 -1.69078C250.728 -2.08042 249.494 -2.23582 248.265 -2.14808C247.036 -2.06034 245.836 -1.73118 244.734 -1.17944Z" stroke="#FF7600" stroke-width="2" stroke-linecap="round" stroke-linejoin="round"/>
</g>
<defs>
<clipPath id="clip0_1985_6508">
<rect width="300" height="300" fill="white" transform="translate(0 -71)"/>
</clipPath>
</defs>
</svg>
