<svg width="223" height="214" viewBox="0 0 223 214" fill="none" xmlns="http://www.w3.org/2000/svg">
<g opacity="0.1">
<path d="M229.167 218.75V197.917C229.167 178.502 215.888 162.188 197.917 157.563M161.458 34.2787C176.728 40.4599 187.5 55.4303 187.5 72.9167C187.5 90.403 176.728 105.373 161.458 111.555M177.083 218.75C177.083 199.336 177.083 189.629 173.912 181.972C169.683 171.762 161.571 163.651 151.362 159.422C143.705 156.25 133.998 156.25 114.583 156.25H83.3335C63.9193 156.25 54.2121 156.25 46.555 159.422C36.3455 163.651 28.2341 171.762 24.0052 181.972C20.8335 189.629 20.8335 199.336 20.8335 218.75M140.625 72.9167C140.625 95.9285 121.97 114.583 98.9585 114.583C75.9466 114.583 57.2918 95.9285 57.2918 72.9167C57.2918 49.9048 75.9466 31.25 98.9585 31.25C121.97 31.25 140.625 49.9048 140.625 72.9167Z" stroke="#7067D6" stroke-width="3" stroke-linecap="round" stroke-linejoin="round"/>
</g>
</svg>
