<svg width="222" height="89" viewBox="0 0 222 89" fill="none" xmlns="http://www.w3.org/2000/svg">
<path d="M0 40.698C0 21.8418 0 12.4137 5.85786 6.55586C11.7157 0.697998 21.1438 0.697998 40 0.697998H181.918C200.774 0.697998 210.202 0.697998 216.06 6.55586C221.918 12.4137 221.918 21.8418 221.918 40.698V48.9746C221.918 67.8308 221.918 77.2589 216.06 83.1167C210.202 88.9746 200.774 88.9746 181.918 88.9746H40C21.1438 88.9746 11.7157 88.9746 5.85786 83.1167C0 77.2589 0 67.8308 0 48.9746V40.698Z" fill="#1F2C46"/>
<path fill-rule="evenodd" clip-rule="evenodd" d="M181.918 1.698H40C30.5436 1.698 23.552 1.70012 18.1878 2.42131C12.8524 3.13864 9.27713 4.55081 6.56497 7.26297C3.85281 9.97513 2.44064 13.5504 1.72332 18.8858C1.00212 24.25 1 31.2416 1 40.698V48.9746C1 58.431 1.00212 65.4226 1.72332 70.7868C2.44064 76.1222 3.85281 79.6975 6.56497 82.4096C9.27713 85.1218 12.8524 86.534 18.1878 87.2513C23.552 87.9725 30.5436 87.9746 40 87.9746H181.918C191.374 87.9746 198.366 87.9725 203.73 87.2513C209.065 86.534 212.64 85.1218 215.353 82.4096C218.065 79.6975 219.477 76.1222 220.194 70.7868C220.915 65.4226 220.918 58.431 220.918 48.9746V40.698C220.918 31.2416 220.915 24.25 220.194 18.8858C219.477 13.5504 218.065 9.97513 215.353 7.26297C212.64 4.55081 209.065 3.13864 203.73 2.42131C198.366 1.70012 191.374 1.698 181.918 1.698ZM5.85786 6.55586C0 12.4137 0 21.8418 0 40.698V48.9746C0 67.8308 0 77.2589 5.85786 83.1167C11.7157 88.9746 21.1438 88.9746 40 88.9746H181.918C200.774 88.9746 210.202 88.9746 216.06 83.1167C221.918 77.2589 221.918 67.8308 221.918 48.9746V40.698C221.918 21.8418 221.918 12.4137 216.06 6.55586C210.202 0.697998 200.774 0.697998 181.918 0.697998H40C21.1438 0.697998 11.7157 0.697998 5.85786 6.55586Z" fill="white"/>
<path d="M94.0497 31.9475C93.8564 31.5408 93.5764 31.2275 93.2097 31.0075C92.843 30.7808 92.4164 30.6675 91.9297 30.6675C91.443 30.6675 91.003 30.7808 90.6097 31.0075C90.223 31.2275 89.9164 31.5475 89.6897 31.9675C89.4697 32.3808 89.3597 32.8608 89.3597 33.4075C89.3597 33.9541 89.4697 34.4341 89.6897 34.8475C89.9164 35.2608 90.223 35.5808 90.6097 35.8075C91.003 36.0275 91.443 36.1375 91.9297 36.1375C92.6097 36.1375 93.1697 35.9341 93.6097 35.5275C94.0497 35.1208 94.3064 34.5708 94.3797 33.8775H91.5997V33.1375H95.3497V33.8375C95.2964 34.4108 95.1164 34.9375 94.8097 35.4175C94.503 35.8908 94.0997 36.2675 93.5997 36.5475C93.0997 36.8208 92.543 36.9575 91.9297 36.9575C91.283 36.9575 90.693 36.8075 90.1597 36.5075C89.6264 36.2008 89.203 35.7775 88.8897 35.2375C88.583 34.6975 88.4297 34.0875 88.4297 33.4075C88.4297 32.7275 88.583 32.1175 88.8897 31.5775C89.203 31.0308 89.6264 30.6075 90.1597 30.3075C90.693 30.0008 91.283 29.8475 91.9297 29.8475C92.6697 29.8475 93.323 30.0308 93.8897 30.3975C94.463 30.7641 94.8797 31.2808 95.1397 31.9475H94.0497Z" fill="white"/>
<path d="M101.153 33.9475C101.153 34.1208 101.143 34.3041 101.123 34.4975H96.7429C96.7762 35.0375 96.9596 35.4608 97.2929 35.7675C97.6329 36.0675 98.0429 36.2175 98.5229 36.2175C98.9162 36.2175 99.2429 36.1275 99.5029 35.9475C99.7696 35.7608 99.9562 35.5141 100.063 35.2075H101.043C100.896 35.7341 100.603 36.1641 100.163 36.4975C99.7229 36.8241 99.1762 36.9875 98.5229 36.9875C98.0029 36.9875 97.5362 36.8708 97.1229 36.6375C96.7162 36.4041 96.3962 36.0741 96.1629 35.6475C95.9296 35.2141 95.8129 34.7141 95.8129 34.1475C95.8129 33.5808 95.9262 33.0841 96.1529 32.6575C96.3796 32.2308 96.6962 31.9041 97.1029 31.6775C97.5162 31.4441 97.9896 31.3275 98.5229 31.3275C99.0429 31.3275 99.5029 31.4408 99.9029 31.6675C100.303 31.8941 100.61 32.2075 100.823 32.6075C101.043 33.0008 101.153 33.4475 101.153 33.9475ZM100.213 33.7575C100.213 33.4108 100.136 33.1141 99.9829 32.8675C99.8296 32.6141 99.6196 32.4241 99.3529 32.2975C99.0929 32.1641 98.8029 32.0975 98.4829 32.0975C98.0229 32.0975 97.6296 32.2441 97.3029 32.5375C96.9829 32.8308 96.7996 33.2375 96.7529 33.7575H100.213Z" fill="white"/>
<path d="M103.064 32.1675V35.3975C103.064 35.6641 103.121 35.8541 103.234 35.9675C103.347 36.0741 103.544 36.1275 103.824 36.1275H104.494V36.8975H103.674C103.167 36.8975 102.787 36.7808 102.534 36.5475C102.281 36.3141 102.154 35.9308 102.154 35.3975V32.1675H101.444V31.4175H102.154V30.0375H103.064V31.4175H104.494V32.1675H103.064Z" fill="white"/>
<path d="M107.933 30.5275C107.759 30.5275 107.613 30.4675 107.493 30.3475C107.373 30.2275 107.313 30.0808 107.313 29.9075C107.313 29.7341 107.373 29.5875 107.493 29.4675C107.613 29.3475 107.759 29.2875 107.933 29.2875C108.099 29.2875 108.239 29.3475 108.353 29.4675C108.473 29.5875 108.533 29.7341 108.533 29.9075C108.533 30.0808 108.473 30.2275 108.353 30.3475C108.239 30.4675 108.099 30.5275 107.933 30.5275ZM108.373 31.4175V36.8975H107.463V31.4175H108.373Z" fill="white"/>
<path d="M110.634 32.1675V35.3975C110.634 35.6641 110.69 35.8541 110.804 35.9675C110.917 36.0741 111.114 36.1275 111.394 36.1275H112.064V36.8975H111.244C110.737 36.8975 110.357 36.7808 110.104 36.5475C109.85 36.3141 109.724 35.9308 109.724 35.3975V32.1675H109.014V31.4175H109.724V30.0375H110.634V31.4175H112.064V32.1675H110.634Z" fill="white"/>
<path d="M117.422 36.9875C116.909 36.9875 116.442 36.8708 116.022 36.6375C115.609 36.4041 115.282 36.0741 115.042 35.6475C114.809 35.2141 114.692 34.7141 114.692 34.1475C114.692 33.5875 114.812 33.0941 115.052 32.6675C115.299 32.2341 115.632 31.9041 116.052 31.6775C116.472 31.4441 116.942 31.3275 117.462 31.3275C117.982 31.3275 118.452 31.4441 118.872 31.6775C119.292 31.9041 119.622 32.2308 119.862 32.6575C120.109 33.0841 120.232 33.5808 120.232 34.1475C120.232 34.7141 120.106 35.2141 119.852 35.6475C119.606 36.0741 119.269 36.4041 118.842 36.6375C118.416 36.8708 117.942 36.9875 117.422 36.9875ZM117.422 36.1875C117.749 36.1875 118.056 36.1108 118.342 35.9575C118.629 35.8041 118.859 35.5741 119.032 35.2675C119.212 34.9608 119.302 34.5875 119.302 34.1475C119.302 33.7075 119.216 33.3341 119.042 33.0275C118.869 32.7208 118.642 32.4941 118.362 32.3475C118.082 32.1941 117.779 32.1175 117.452 32.1175C117.119 32.1175 116.812 32.1941 116.532 32.3475C116.259 32.4941 116.039 32.7208 115.872 33.0275C115.706 33.3341 115.622 33.7075 115.622 34.1475C115.622 34.5941 115.702 34.9708 115.862 35.2775C116.029 35.5841 116.249 35.8141 116.522 35.9675C116.796 36.1141 117.096 36.1875 117.422 36.1875Z" fill="white"/>
<path d="M123.699 31.3175C124.365 31.3175 124.905 31.5208 125.319 31.9275C125.732 32.3275 125.939 32.9075 125.939 33.6675V36.8975H125.039V33.7975C125.039 33.2508 124.902 32.8341 124.629 32.5475C124.355 32.2541 123.982 32.1075 123.509 32.1075C123.029 32.1075 122.645 32.2575 122.359 32.5575C122.079 32.8575 121.939 33.2941 121.939 33.8675V36.8975H121.029V31.4175H121.939V32.1975C122.119 31.9175 122.362 31.7008 122.669 31.5475C122.982 31.3941 123.325 31.3175 123.699 31.3175Z" fill="white"/>
<path d="M95.952 54.7083H91.504L90.768 56.8363H88.416L92.432 45.6523H95.04L99.056 56.8363H96.688L95.952 54.7083ZM95.344 52.9163L93.728 48.2443L92.112 52.9163H95.344Z" fill="white"/>
<path d="M102.157 49.2523C102.445 48.847 102.84 48.511 103.341 48.2443C103.853 47.967 104.434 47.8283 105.085 47.8283C105.842 47.8283 106.525 48.015 107.133 48.3883C107.752 48.7616 108.237 49.295 108.589 49.9883C108.952 50.671 109.133 51.4656 109.133 52.3723C109.133 53.279 108.952 54.0843 108.589 54.7883C108.237 55.4816 107.752 56.0203 107.133 56.4043C106.525 56.7883 105.842 56.9803 105.085 56.9803C104.434 56.9803 103.858 56.847 103.357 56.5803C102.866 56.3136 102.466 55.9776 102.157 55.5723V61.0603H99.9171V47.9723H102.157V49.2523ZM106.845 52.3723C106.845 51.839 106.733 51.3803 106.509 50.9963C106.296 50.6016 106.008 50.303 105.645 50.1003C105.293 49.8976 104.909 49.7963 104.493 49.7963C104.088 49.7963 103.704 49.903 103.341 50.1163C102.989 50.319 102.701 50.6176 102.477 51.0123C102.264 51.407 102.157 51.871 102.157 52.4043C102.157 52.9376 102.264 53.4016 102.477 53.7963C102.701 54.191 102.989 54.495 103.341 54.7083C103.704 54.911 104.088 55.0123 104.493 55.0123C104.909 55.0123 105.293 54.9056 105.645 54.6923C106.008 54.479 106.296 54.175 106.509 53.7803C106.733 53.3856 106.845 52.9163 106.845 52.3723Z" fill="white"/>
<path d="M112.361 49.2523C112.649 48.847 113.044 48.511 113.545 48.2443C114.057 47.967 114.638 47.8283 115.289 47.8283C116.046 47.8283 116.729 48.015 117.337 48.3883C117.956 48.7616 118.441 49.295 118.793 49.9883C119.156 50.671 119.337 51.4656 119.337 52.3723C119.337 53.279 119.156 54.0843 118.793 54.7883C118.441 55.4816 117.956 56.0203 117.337 56.4043C116.729 56.7883 116.046 56.9803 115.289 56.9803C114.638 56.9803 114.062 56.847 113.561 56.5803C113.07 56.3136 112.67 55.9776 112.361 55.5723V61.0603H110.121V47.9723H112.361V49.2523ZM117.049 52.3723C117.049 51.839 116.937 51.3803 116.713 50.9963C116.5 50.6016 116.212 50.303 115.849 50.1003C115.497 49.8976 115.113 49.7963 114.697 49.7963C114.292 49.7963 113.908 49.903 113.545 50.1163C113.193 50.319 112.905 50.6176 112.681 51.0123C112.468 51.407 112.361 51.871 112.361 52.4043C112.361 52.9376 112.468 53.4016 112.681 53.7963C112.905 54.191 113.193 54.495 113.545 54.7083C113.908 54.911 114.292 55.0123 114.697 55.0123C115.113 55.0123 115.497 54.9056 115.849 54.6923C116.212 54.479 116.5 54.175 116.713 53.7803C116.937 53.3856 117.049 52.9163 117.049 52.3723Z" fill="white"/>
<path d="M127.353 56.9483C126.574 56.9483 125.87 56.815 125.241 56.5483C124.622 56.2816 124.132 55.8976 123.769 55.3963C123.406 54.895 123.22 54.303 123.209 53.6203H125.609C125.641 54.079 125.801 54.4416 126.089 54.7083C126.388 54.975 126.793 55.1083 127.305 55.1083C127.828 55.1083 128.238 54.9856 128.537 54.7403C128.836 54.4843 128.985 54.1536 128.985 53.7483C128.985 53.4176 128.884 53.1456 128.681 52.9323C128.478 52.719 128.222 52.5536 127.913 52.4363C127.614 52.3083 127.198 52.1696 126.665 52.0203C125.94 51.807 125.348 51.599 124.889 51.3963C124.441 51.183 124.052 50.8683 123.721 50.4523C123.401 50.0256 123.241 49.4603 123.241 48.7563C123.241 48.095 123.406 47.519 123.737 47.0283C124.068 46.5376 124.532 46.1643 125.129 45.9083C125.726 45.6416 126.409 45.5083 127.177 45.5083C128.329 45.5083 129.262 45.791 129.977 46.3563C130.702 46.911 131.102 47.6896 131.177 48.6923H128.713C128.692 48.3083 128.526 47.9936 128.217 47.7483C127.918 47.4923 127.518 47.3643 127.017 47.3643C126.58 47.3643 126.228 47.4763 125.961 47.7003C125.705 47.9243 125.577 48.2496 125.577 48.6763C125.577 48.975 125.673 49.2256 125.865 49.4283C126.068 49.6203 126.313 49.7803 126.601 49.9083C126.9 50.0256 127.316 50.1643 127.849 50.3243C128.574 50.5376 129.166 50.751 129.625 50.9643C130.084 51.1776 130.478 51.4976 130.809 51.9243C131.14 52.351 131.305 52.911 131.305 53.6043C131.305 54.2016 131.15 54.7563 130.841 55.2683C130.532 55.7803 130.078 56.191 129.481 56.5003C128.884 56.799 128.174 56.9483 127.353 56.9483Z" fill="white"/>
<path d="M135.215 49.8123V54.1003C135.215 54.399 135.284 54.6176 135.423 54.7563C135.572 54.8843 135.818 54.9483 136.159 54.9483H137.199V56.8363H135.791C133.903 56.8363 132.959 55.919 132.959 54.0843V49.8123H131.903V47.9723H132.959V45.7803H135.215V47.9723H137.199V49.8123H135.215Z" fill="white"/>
<path d="M142.106 56.9803C141.253 56.9803 140.485 56.7936 139.802 56.4203C139.12 56.0363 138.581 55.4976 138.186 54.8043C137.802 54.111 137.61 53.311 137.61 52.4043C137.61 51.4976 137.808 50.6976 138.202 50.0043C138.608 49.311 139.157 48.7776 139.85 48.4043C140.544 48.0203 141.317 47.8283 142.17 47.8283C143.024 47.8283 143.797 48.0203 144.49 48.4043C145.184 48.7776 145.728 49.311 146.122 50.0043C146.528 50.6976 146.73 51.4976 146.73 52.4043C146.73 53.311 146.522 54.111 146.106 54.8043C145.701 55.4976 145.146 56.0363 144.442 56.4203C143.749 56.7936 142.97 56.9803 142.106 56.9803ZM142.106 55.0283C142.512 55.0283 142.89 54.9323 143.242 54.7403C143.605 54.5376 143.893 54.239 144.106 53.8443C144.32 53.4496 144.426 52.9696 144.426 52.4043C144.426 51.5616 144.202 50.9163 143.754 50.4683C143.317 50.0096 142.778 49.7803 142.138 49.7803C141.498 49.7803 140.96 50.0096 140.522 50.4683C140.096 50.9163 139.882 51.5616 139.882 52.4043C139.882 53.247 140.09 53.8976 140.506 54.3563C140.933 54.8043 141.466 55.0283 142.106 55.0283Z" fill="white"/>
<path d="M149.973 49.3483C150.261 48.879 150.635 48.511 151.093 48.2443C151.563 47.9776 152.096 47.8443 152.693 47.8443V50.1963H152.101C151.397 50.1963 150.864 50.3616 150.501 50.6923C150.149 51.023 149.973 51.599 149.973 52.4203V56.8363H147.733V47.9723H149.973V49.3483Z" fill="white"/>
<path d="M161.802 52.2123C161.802 52.5323 161.781 52.8203 161.738 53.0763H155.258C155.311 53.7163 155.535 54.2176 155.93 54.5803C156.325 54.943 156.81 55.1243 157.386 55.1243C158.218 55.1243 158.81 54.767 159.162 54.0523H161.578C161.322 54.9056 160.831 55.6096 160.106 56.1643C159.381 56.7083 158.49 56.9803 157.434 56.9803C156.581 56.9803 155.813 56.7936 155.13 56.4203C154.458 56.0363 153.93 55.4976 153.546 54.8043C153.173 54.111 152.986 53.311 152.986 52.4043C152.986 51.487 153.173 50.6816 153.546 49.9883C153.919 49.295 154.442 48.7616 155.114 48.3883C155.786 48.015 156.559 47.8283 157.434 47.8283C158.277 47.8283 159.029 48.0096 159.69 48.3723C160.362 48.735 160.879 49.2523 161.242 49.9243C161.615 50.5856 161.802 51.3483 161.802 52.2123ZM159.482 51.5723C159.471 50.9963 159.263 50.5376 158.858 50.1963C158.453 49.8443 157.957 49.6683 157.37 49.6683C156.815 49.6683 156.346 49.839 155.962 50.1803C155.589 50.511 155.359 50.975 155.274 51.5723H159.482Z" fill="white"/>
<path d="M55.1778 64.4657C44.34 64.4657 35.5547 55.6804 35.5547 44.8425C35.5547 34.0046 44.34 25.2194 55.1778 25.2194C66.0157 25.2194 74.801 34.0046 74.801 44.8425C74.7892 55.6745 66.0098 64.4539 55.1778 64.4657ZM46.7929 50.3115C46.5397 50.3115 46.2886 50.3429 46.0413 50.4017L45.747 50.4822L44.5813 52.4779C44.3684 52.833 44.3001 53.2564 44.3904 53.6605C44.4807 54.0646 44.7227 54.4186 45.0666 54.6493C45.4104 54.88 45.8297 54.9699 46.2379 54.9003C46.6461 54.8307 47.0119 54.607 47.2599 54.2754L47.3816 54.0929L48.9318 51.4025C48.6805 51.0665 48.3549 50.7931 47.9805 50.6039C47.606 50.4146 47.1928 50.3145 46.7732 50.3115H46.7929ZM57.5542 38.2884C56.9437 38.8619 56.5389 39.6205 56.4023 40.4469C56.1835 41.5865 56.3932 42.7667 56.991 43.7613L62.9565 54.0948C63.164 54.4441 63.4951 54.7029 63.8843 54.8199C64.2734 54.9369 64.6923 54.9036 65.0581 54.7267C65.4228 54.5468 65.7063 54.2359 65.8518 53.8561C65.9973 53.4763 65.9942 53.0556 65.843 52.678L65.7469 52.4818L64.177 49.7522H66.5122C66.9211 49.7488 67.3135 49.5904 67.6102 49.3089C67.9069 49.0274 68.0857 48.6438 68.1106 48.2356C68.1355 47.8274 68.0047 47.425 67.7444 47.1095C67.4841 46.7941 67.1139 46.5891 66.7084 46.536L66.5122 46.5242H62.3128L58.0075 39.0674L57.5581 38.2825L57.5542 38.2884V38.2884ZM43.9141 46.5105C43.7033 46.511 43.4946 46.5531 43.3 46.6344C43.1054 46.7157 42.9288 46.8346 42.7803 46.9842C42.6317 47.1339 42.5141 47.3114 42.4343 47.5065C42.3544 47.7017 42.3138 47.9107 42.3149 48.1215C42.3149 48.9339 42.9193 49.6207 43.7258 49.7247L43.922 49.7346H58.6001C58.7626 49.4084 58.8443 49.048 58.8385 48.6836C58.8327 48.3193 58.7395 47.9616 58.5668 47.6408C58.4199 47.3402 58.2009 47.0806 57.9294 46.8851C57.6579 46.6896 57.3423 46.5643 57.0106 46.5203L56.7732 46.5085H51.7673L58.6904 34.5207C58.9036 34.1491 58.9615 33.7083 58.8513 33.2943C58.7729 33.0037 58.615 32.7408 58.3953 32.5351C58.1757 32.3294 57.903 32.1891 57.6079 32.13C57.3128 32.0708 57.0071 32.0952 56.7251 32.2004C56.4431 32.3055 56.1961 32.4873 56.0118 32.7252L55.8902 32.9057L55.1778 34.1499L54.4734 32.9057C54.2657 32.5559 53.9343 32.2969 53.5447 32.1799C53.1551 32.0628 52.7358 32.0964 52.3698 32.2739C52.0052 32.4545 51.722 32.7658 51.5765 33.1458C51.4311 33.5258 51.434 33.9466 51.5848 34.3245L51.681 34.5207L53.3097 37.3857L48.0409 46.5105H43.9141Z" fill="url(#paint0_linear_8843_13308)"/>
<defs>
<linearGradient id="paint0_linear_8843_13308" x1="55.1778" y1="25.2194" x2="55.1778" y2="64.4657" gradientUnits="userSpaceOnUse">
<stop stop-color="#1BBFFA"/>
<stop offset="1" stop-color="#1B7DF5"/>
</linearGradient>
</defs>
</svg>
