<svg width="89" height="36" viewBox="0 0 89 36" fill="none" xmlns="http://www.w3.org/2000/svg">
<rect x="0.334015" y="0.44458" width="87.9843" height="34.7669" rx="9.72202" fill="white"/>
<path d="M34.9552 13.1446C34.8612 12.9469 34.7251 12.7946 34.5469 12.6876C34.3686 12.5775 34.1612 12.5224 33.9247 12.5224C33.6881 12.5224 33.4742 12.5775 33.283 12.6876C33.095 12.7946 32.946 12.9501 32.8358 13.1543C32.7288 13.3552 32.6754 13.5886 32.6754 13.8543C32.6754 14.12 32.7288 14.3534 32.8358 14.5543C32.946 14.7552 33.095 14.9107 33.283 15.0209C33.4742 15.1279 33.6881 15.1813 33.9247 15.1813C34.2552 15.1813 34.5274 15.0825 34.7413 14.8848C34.9552 14.6871 35.08 14.4198 35.1156 14.0828H33.7642V13.723H35.5871V14.0633C35.5612 14.342 35.4737 14.598 35.3246 14.8314C35.1756 15.0614 34.9795 15.2445 34.7364 15.3806C34.4934 15.5135 34.2228 15.5799 33.9247 15.5799C33.6103 15.5799 33.3235 15.507 33.0643 15.3612C32.805 15.2121 32.5992 15.0063 32.4469 14.7439C32.2978 14.4814 32.2233 14.1848 32.2233 13.8543C32.2233 13.5237 32.2978 13.2272 32.4469 12.9647C32.5992 12.699 32.805 12.4932 33.0643 12.3474C33.3235 12.1983 33.6103 12.1238 33.9247 12.1238C34.2844 12.1238 34.602 12.2129 34.8774 12.3911C35.1561 12.5694 35.3587 12.8205 35.485 13.1446H34.9552ZM38.4081 14.1168C38.4081 14.201 38.4032 14.2902 38.3935 14.3841H36.2644C36.2806 14.6466 36.3697 14.8524 36.5317 15.0015C36.697 15.1473 36.8963 15.2202 37.1296 15.2202C37.3208 15.2202 37.4796 15.1765 37.606 15.089C37.7356 14.9982 37.8264 14.8783 37.8782 14.7293H38.3546C38.2833 14.9853 38.1407 15.1943 37.9268 15.3563C37.7129 15.5151 37.4472 15.5945 37.1296 15.5945C36.8768 15.5945 36.65 15.5378 36.4491 15.4244C36.2514 15.311 36.0958 15.1506 35.9824 14.9432C35.869 14.7325 35.8123 14.4895 35.8123 14.214C35.8123 13.9385 35.8674 13.6971 35.9776 13.4897C36.0877 13.2823 36.2417 13.1235 36.4394 13.0133C36.6403 12.8999 36.8704 12.8432 37.1296 12.8432C37.3824 12.8432 37.606 12.8983 37.8004 13.0085C37.9949 13.1187 38.144 13.271 38.2477 13.4654C38.3546 13.6566 38.4081 13.8737 38.4081 14.1168ZM37.9511 14.0244C37.9511 13.8559 37.9139 13.7117 37.8393 13.5918C37.7648 13.4686 37.6627 13.3763 37.5331 13.3147C37.4067 13.2499 37.2657 13.2175 37.1102 13.2175C36.8866 13.2175 36.6954 13.2888 36.5366 13.4314C36.381 13.574 36.2919 13.7717 36.2692 14.0244H37.9511ZM39.3371 13.2515V14.8216C39.3371 14.9513 39.3646 15.0436 39.4197 15.0987C39.4748 15.1506 39.5704 15.1765 39.7065 15.1765H40.0322V15.5508H39.6336C39.3873 15.5508 39.2026 15.4941 39.0795 15.3806C38.9563 15.2672 38.8947 15.0809 38.8947 14.8216V13.2515H38.5496V12.8869H38.8947V12.2161H39.3371V12.8869H40.0322V13.2515H39.3371ZM41.7037 12.4543C41.6195 12.4543 41.5482 12.4252 41.4898 12.3668C41.4315 12.3085 41.4023 12.2372 41.4023 12.1529C41.4023 12.0687 41.4315 11.9974 41.4898 11.9391C41.5482 11.8807 41.6195 11.8516 41.7037 11.8516C41.7847 11.8516 41.8528 11.8807 41.9079 11.9391C41.9662 11.9974 41.9954 12.0687 41.9954 12.1529C41.9954 12.2372 41.9662 12.3085 41.9079 12.3668C41.8528 12.4252 41.7847 12.4543 41.7037 12.4543ZM41.9176 12.8869V15.5508H41.4752V12.8869H41.9176ZM43.0166 13.2515V14.8216C43.0166 14.9513 43.0442 15.0436 43.0993 15.0987C43.1544 15.1506 43.25 15.1765 43.3861 15.1765H43.7118V15.5508H43.3132C43.0669 15.5508 42.8822 15.4941 42.759 15.3806C42.6359 15.2672 42.5743 15.0809 42.5743 14.8216V13.2515H42.2292V12.8869H42.5743V12.2161H43.0166V12.8869H43.7118V13.2515H43.0166ZM46.3166 15.5945C46.0671 15.5945 45.8402 15.5378 45.636 15.4244C45.4351 15.311 45.2763 15.1506 45.1597 14.9432C45.0462 14.7325 44.9895 14.4895 44.9895 14.214C44.9895 13.9418 45.0479 13.702 45.1645 13.4946C45.2844 13.2839 45.4465 13.1235 45.6506 13.0133C45.8548 12.8999 46.0833 12.8432 46.336 12.8432C46.5888 12.8432 46.8173 12.8999 47.0214 13.0133C47.2256 13.1235 47.386 13.2823 47.5027 13.4897C47.6226 13.6971 47.6825 13.9385 47.6825 14.214C47.6825 14.4895 47.621 14.7325 47.4978 14.9432C47.3779 15.1506 47.2143 15.311 47.0069 15.4244C46.7994 15.5378 46.5694 15.5945 46.3166 15.5945ZM46.3166 15.2056C46.4754 15.2056 46.6245 15.1684 46.7638 15.0938C46.9032 15.0193 47.015 14.9075 47.0992 14.7584C47.1867 14.6094 47.2305 14.4279 47.2305 14.214C47.2305 14.0001 47.1883 13.8186 47.1041 13.6696C47.0198 13.5205 46.9096 13.4103 46.7735 13.339C46.6374 13.2645 46.49 13.2272 46.3312 13.2272C46.1691 13.2272 46.0201 13.2645 45.884 13.339C45.7511 13.4103 45.6441 13.5205 45.5631 13.6696C45.4821 13.8186 45.4416 14.0001 45.4416 14.214C45.4416 14.4311 45.4805 14.6142 45.5583 14.7633C45.6393 14.9124 45.7462 15.0242 45.8791 15.0987C46.012 15.17 46.1578 15.2056 46.3166 15.2056ZM49.3676 12.8383C49.6917 12.8383 49.9542 12.9372 50.1551 13.1349C50.356 13.3293 50.4565 13.6112 50.4565 13.9807V15.5508H50.019V14.0439C50.019 13.7781 49.9525 13.5756 49.8197 13.4362C49.6868 13.2937 49.5053 13.2224 49.2752 13.2224C49.0419 13.2224 48.8556 13.2953 48.7162 13.4411C48.5801 13.5869 48.5121 13.7992 48.5121 14.0779V15.5508H48.0697V12.8869H48.5121V13.2661C48.5996 13.13 48.7178 13.0247 48.8669 12.9501C49.0192 12.8756 49.1861 12.8383 49.3676 12.8383Z" fill="#073042"/>
<path d="M36.2443 20.0324C36.1198 19.8043 35.9487 19.6306 35.7309 19.5113C35.5132 19.392 35.2591 19.3324 34.9687 19.3324C34.6473 19.3324 34.3621 19.405 34.1132 19.5502C33.8643 19.6954 33.6699 19.9028 33.5299 20.1724C33.3899 20.442 33.3199 20.7531 33.3199 21.1057C33.3199 21.4687 33.3899 21.785 33.5299 22.0546C33.6751 22.3242 33.8747 22.5316 34.1288 22.6768C34.3828 22.822 34.6784 22.8946 35.0154 22.8946C35.4302 22.8946 35.7698 22.7857 36.0343 22.5679C36.2987 22.3449 36.4724 22.0364 36.5554 21.6424H34.6887V20.8102H37.6287V21.759C37.5561 22.1375 37.4005 22.4875 37.162 22.809C36.9235 23.1305 36.615 23.3897 36.2365 23.5868C35.8632 23.7786 35.4432 23.8745 34.9765 23.8745C34.4528 23.8745 33.9784 23.7579 33.5532 23.5246C33.1332 23.286 32.8014 22.9568 32.5577 22.5368C32.3192 22.1168 32.1999 21.6398 32.1999 21.1057C32.1999 20.5717 32.3192 20.0946 32.5577 19.6746C32.8014 19.2495 33.1332 18.9202 33.5532 18.6869C33.9784 18.4484 34.4502 18.3291 34.9687 18.3291C35.5806 18.3291 36.1121 18.4795 36.5632 18.7802C37.0143 19.0758 37.3254 19.4932 37.4965 20.0324H36.2443ZM40.0365 23.8979C39.6217 23.8979 39.2483 23.8071 38.9165 23.6257C38.5846 23.439 38.3228 23.1772 38.131 22.8401C37.9443 22.5031 37.851 22.1142 37.851 21.6735C37.851 21.2327 37.9469 20.8439 38.1387 20.5068C38.3358 20.1698 38.6028 19.9106 38.9398 19.7291C39.2769 19.5424 39.6528 19.4491 40.0676 19.4491C40.4824 19.4491 40.8583 19.5424 41.1953 19.7291C41.5324 19.9106 41.7968 20.1698 41.9886 20.5068C42.1857 20.8439 42.2842 21.2327 42.2842 21.6735C42.2842 22.1142 42.1831 22.5031 41.9809 22.8401C41.7838 23.1772 41.5142 23.439 41.172 23.6257C40.835 23.8071 40.4565 23.8979 40.0365 23.8979ZM40.0365 22.949C40.2335 22.949 40.4176 22.9023 40.5887 22.809C40.765 22.7105 40.905 22.5653 41.0087 22.3735C41.1124 22.1816 41.1642 21.9483 41.1642 21.6735C41.1642 21.2639 41.0553 20.9502 40.8376 20.7324C40.625 20.5094 40.3631 20.398 40.052 20.398C39.7409 20.398 39.4791 20.5094 39.2665 20.7324C39.0591 20.9502 38.9554 21.2639 38.9554 21.6735C38.9554 22.0831 39.0565 22.3994 39.2587 22.6224C39.4661 22.8401 39.7254 22.949 40.0365 22.949ZM44.6851 23.8979C44.2703 23.8979 43.897 23.8071 43.5651 23.6257C43.2333 23.439 42.9714 23.1772 42.7796 22.8401C42.5929 22.5031 42.4996 22.1142 42.4996 21.6735C42.4996 21.2327 42.5955 20.8439 42.7874 20.5068C42.9844 20.1698 43.2514 19.9106 43.5885 19.7291C43.9255 19.5424 44.3014 19.4491 44.7162 19.4491C45.131 19.4491 45.5069 19.5424 45.844 19.7291C46.181 19.9106 46.4454 20.1698 46.6373 20.5068C46.8343 20.8439 46.9328 21.2327 46.9328 21.6735C46.9328 22.1142 46.8317 22.5031 46.6295 22.8401C46.4325 23.1772 46.1629 23.439 45.8206 23.6257C45.4836 23.8071 45.1051 23.8979 44.6851 23.8979ZM44.6851 22.949C44.8821 22.949 45.0662 22.9023 45.2373 22.809C45.4136 22.7105 45.5536 22.5653 45.6573 22.3735C45.761 22.1816 45.8129 21.9483 45.8129 21.6735C45.8129 21.2639 45.704 20.9502 45.4862 20.7324C45.2736 20.5094 45.0118 20.398 44.7007 20.398C44.3896 20.398 44.1277 20.5094 43.9151 20.7324C43.7077 20.9502 43.604 21.2639 43.604 21.6735C43.604 22.0831 43.7051 22.3994 43.9074 22.6224C44.1148 22.8401 44.374 22.949 44.6851 22.949ZM49.1082 19.4491C49.4297 19.4491 49.7123 19.5139 49.956 19.6435C50.1997 19.768 50.3915 19.9313 50.5315 20.1335V19.5191H51.6282V23.859C51.6282 24.2582 51.5478 24.6134 51.387 24.9245C51.2263 25.2408 50.9852 25.4897 50.6637 25.6712C50.3423 25.8578 49.9534 25.9512 49.4971 25.9512C48.8852 25.9512 48.3823 25.8086 47.9882 25.5234C47.5993 25.2382 47.379 24.8493 47.3271 24.3568H48.4082C48.4653 24.5538 48.5871 24.7093 48.7738 24.8234C48.9656 24.9427 49.1964 25.0023 49.466 25.0023C49.7823 25.0023 50.0389 24.9064 50.236 24.7145C50.433 24.5279 50.5315 24.2427 50.5315 23.859V23.1901C50.3915 23.3923 50.1971 23.5608 49.9482 23.6957C49.7045 23.8305 49.4245 23.8979 49.1082 23.8979C48.7453 23.8979 48.4134 23.8045 48.1127 23.6179C47.8119 23.4312 47.5734 23.1694 47.3971 22.8323C47.226 22.4901 47.1405 22.0987 47.1405 21.6579C47.1405 21.2224 47.226 20.8361 47.3971 20.4991C47.5734 20.162 47.8093 19.9028 48.1049 19.7213C48.4056 19.5398 48.7401 19.4491 49.1082 19.4491ZM50.5315 21.6735C50.5315 21.409 50.4797 21.1835 50.376 20.9968C50.2723 20.805 50.1323 20.6598 49.956 20.5613C49.7797 20.4576 49.5904 20.4057 49.3882 20.4057C49.186 20.4057 48.9993 20.455 48.8282 20.5535C48.6571 20.652 48.5171 20.7972 48.4082 20.9891C48.3045 21.1757 48.2527 21.3987 48.2527 21.6579C48.2527 21.9172 48.3045 22.1453 48.4082 22.3424C48.5171 22.5342 48.6571 22.682 48.8282 22.7857C49.0045 22.8894 49.1912 22.9412 49.3882 22.9412C49.5904 22.9412 49.7797 22.892 49.956 22.7935C50.1323 22.6898 50.2723 22.5446 50.376 22.3579C50.4797 22.1661 50.5315 21.9379 50.5315 21.6735ZM53.4694 18.0724V23.8279H52.3805V18.0724H53.4694ZM58.2396 21.5801C58.2396 21.7357 58.2292 21.8757 58.2084 22.0001H55.0585C55.0844 22.3112 55.1933 22.5549 55.3852 22.7312C55.577 22.9075 55.8129 22.9957 56.0929 22.9957C56.4974 22.9957 56.7851 22.822 56.9562 22.4746H58.1307C58.0062 22.8894 57.7677 23.2316 57.4151 23.5012C57.0625 23.7657 56.6296 23.8979 56.1163 23.8979C55.7015 23.8979 55.3281 23.8071 54.9963 23.6257C54.6696 23.439 54.413 23.1772 54.2263 22.8401C54.0448 22.5031 53.9541 22.1142 53.9541 21.6735C53.9541 21.2276 54.0448 20.8361 54.2263 20.4991C54.4078 20.162 54.6619 19.9028 54.9885 19.7213C55.3152 19.5398 55.6911 19.4491 56.1163 19.4491C56.5259 19.4491 56.8914 19.5372 57.2129 19.7135C57.5396 19.8898 57.791 20.1413 57.9673 20.468C58.1488 20.7894 58.2396 21.1602 58.2396 21.5801ZM57.1118 21.269C57.1066 20.9891 57.0055 20.7661 56.8085 20.6002C56.6114 20.4291 56.3703 20.3435 56.0852 20.3435C55.8155 20.3435 55.5874 20.4265 55.4007 20.5924C55.2192 20.7531 55.1078 20.9787 55.0663 21.269H57.1118ZM64.2242 20.0791C64.2242 20.3694 64.1542 20.6417 64.0142 20.8957C63.8794 21.1498 63.6642 21.3546 63.3687 21.5102C63.0783 21.6657 62.7101 21.7435 62.2642 21.7435H61.3542V23.8279H60.2654V18.3991H62.2642C62.6842 18.3991 63.042 18.4717 63.3375 18.6169C63.6331 18.7621 63.8535 18.9617 63.9986 19.2158C64.149 19.4698 64.2242 19.7576 64.2242 20.0791ZM62.2176 20.8646C62.5183 20.8646 62.7413 20.7972 62.8864 20.6624C63.0316 20.5224 63.1042 20.328 63.1042 20.0791C63.1042 19.5502 62.8087 19.2858 62.2176 19.2858H61.3542V20.8646H62.2176ZM65.775 18.0724V23.8279H64.6862V18.0724H65.775ZM66.2597 21.6579C66.2597 21.2224 66.3453 20.8361 66.5164 20.4991C66.6927 20.162 66.9286 19.9028 67.2242 19.7213C67.5249 19.5398 67.8593 19.4491 68.2275 19.4491C68.5489 19.4491 68.8289 19.5139 69.0675 19.6435C69.3112 19.7731 69.5056 19.9365 69.6508 20.1335V19.5191H70.7474V23.8279H69.6508V23.1979C69.5108 23.4001 69.3163 23.5686 69.0675 23.7034C68.8238 23.8331 68.5412 23.8979 68.2197 23.8979C67.8567 23.8979 67.5249 23.8045 67.2242 23.6179C66.9286 23.4312 66.6927 23.1694 66.5164 22.8323C66.3453 22.4901 66.2597 22.0987 66.2597 21.6579ZM69.6508 21.6735C69.6508 21.409 69.5989 21.1835 69.4952 20.9968C69.3915 20.805 69.2515 20.6598 69.0752 20.5613C68.8989 20.4576 68.7097 20.4057 68.5075 20.4057C68.3052 20.4057 68.1186 20.455 67.9475 20.5535C67.7764 20.652 67.6364 20.7972 67.5275 20.9891C67.4238 21.1757 67.3719 21.3987 67.3719 21.6579C67.3719 21.9172 67.4238 22.1453 67.5275 22.3424C67.6364 22.5342 67.7764 22.682 67.9475 22.7857C68.1238 22.8894 68.3104 22.9412 68.5075 22.9412C68.7097 22.9412 68.8989 22.892 69.0752 22.7935C69.2515 22.6898 69.3915 22.5446 69.4952 22.3579C69.5989 22.1661 69.6508 21.9379 69.6508 21.6735ZM75.6219 19.5191L72.9542 25.8656H71.7953L72.7287 23.719L71.002 19.5191H72.2231L73.3353 22.529L74.4631 19.5191H75.6219Z" fill="#073042"/>
<path d="M14.9142 10.7717C14.5603 10.9567 14.324 11.294 14.324 11.7318V23.7349C14.324 24.1727 14.5608 24.51 14.9142 24.695L21.8938 17.7318L14.9142 10.7717Z" fill="#00CBFF"/>
<path d="M16.4809 24.3446L24.1186 19.96L22.484 18.3254L16.4809 24.3446Z" fill="#F4334A"/>
<path d="M26.4791 16.908L24.8771 15.9806L23.0902 17.7349L24.8771 19.4891L26.5117 18.5617C27.0013 18.1731 27.0013 17.2971 26.4791 16.908Z" fill="#FFC400"/>
<path d="M22.4835 17.1447L16.4804 11.1255L24.1181 15.5101L22.4835 17.1447Z" fill="#09E275"/>
</svg>
