<svg width="89" height="36" viewBox="0 0 89 36" fill="none" xmlns="http://www.w3.org/2000/svg">
<rect x="0.544189" y="0.44458" width="87.9843" height="34.7669" rx="9.72202" fill="white"/>
<path d="M38.5678 13.1446C38.4739 12.9469 38.3377 12.7946 38.1595 12.6876C37.9813 12.5775 37.7739 12.5224 37.5373 12.5224C37.3007 12.5224 37.0868 12.5775 36.8956 12.6876C36.7077 12.7946 36.5586 12.9501 36.4484 13.1543C36.3415 13.3552 36.288 13.5886 36.288 13.8543C36.288 14.12 36.3415 14.3534 36.4484 14.5543C36.5586 14.7552 36.7077 14.9107 36.8956 15.0209C37.0868 15.1279 37.3007 15.1813 37.5373 15.1813C37.8678 15.1813 38.1401 15.0825 38.3539 14.8848C38.5678 14.6871 38.6926 14.4198 38.7282 14.0828H37.3769V13.723H39.1998V14.0633C39.1738 14.342 39.0863 14.598 38.9373 14.8314C38.7882 15.0614 38.5921 15.2445 38.3491 15.3806C38.106 15.5135 37.8354 15.5799 37.5373 15.5799C37.223 15.5799 36.9362 15.507 36.6769 15.3612C36.4176 15.2121 36.2119 15.0063 36.0596 14.7439C35.9105 14.4814 35.8359 14.1848 35.8359 13.8543C35.8359 13.5237 35.9105 13.2272 36.0596 12.9647C36.2119 12.699 36.4176 12.4932 36.6769 12.3474C36.9362 12.1983 37.223 12.1238 37.5373 12.1238C37.897 12.1238 38.2146 12.2129 38.4901 12.3911C38.7688 12.5694 38.9713 12.8205 39.0977 13.1446H38.5678ZM42.0207 14.1168C42.0207 14.201 42.0158 14.2902 42.0061 14.3841H39.877C39.8932 14.6466 39.9823 14.8524 40.1444 15.0015C40.3096 15.1473 40.5089 15.2202 40.7423 15.2202C40.9335 15.2202 41.0923 15.1765 41.2186 15.089C41.3483 14.9982 41.439 14.8783 41.4909 14.7293H41.9672C41.8959 14.9853 41.7534 15.1943 41.5395 15.3563C41.3256 15.5151 41.0598 15.5945 40.7423 15.5945C40.4895 15.5945 40.2626 15.5378 40.0617 15.4244C39.864 15.311 39.7085 15.1506 39.5951 14.9432C39.4816 14.7325 39.4249 14.4895 39.4249 14.214C39.4249 13.9385 39.48 13.6971 39.5902 13.4897C39.7004 13.2823 39.8543 13.1235 40.052 13.0133C40.2529 12.8999 40.483 12.8432 40.7423 12.8432C40.995 12.8432 41.2186 12.8983 41.4131 13.0085C41.6075 13.1187 41.7566 13.271 41.8603 13.4654C41.9672 13.6566 42.0207 13.8737 42.0207 14.1168ZM41.5638 14.0244C41.5638 13.8559 41.5265 13.7117 41.452 13.5918C41.3774 13.4686 41.2754 13.3763 41.1457 13.3147C41.0193 13.2499 40.8784 13.2175 40.7228 13.2175C40.4992 13.2175 40.308 13.2888 40.1492 13.4314C39.9937 13.574 39.9045 13.7717 39.8819 14.0244H41.5638ZM42.9497 13.2515V14.8216C42.9497 14.9513 42.9773 15.0436 43.0324 15.0987C43.0875 15.1506 43.1831 15.1765 43.3192 15.1765H43.6449V15.5508H43.2463C43 15.5508 42.8152 15.4941 42.6921 15.3806C42.5689 15.2672 42.5074 15.0809 42.5074 14.8216V13.2515H42.1622V12.8869H42.5074V12.2161H42.9497V12.8869H43.6449V13.2515H42.9497ZM45.3164 12.4543C45.2321 12.4543 45.1608 12.4252 45.1025 12.3668C45.0441 12.3085 45.015 12.2372 45.015 12.1529C45.015 12.0687 45.0441 11.9974 45.1025 11.9391C45.1608 11.8807 45.2321 11.8516 45.3164 11.8516C45.3974 11.8516 45.4654 11.8807 45.5205 11.9391C45.5789 11.9974 45.608 12.0687 45.608 12.1529C45.608 12.2372 45.5789 12.3085 45.5205 12.3668C45.4654 12.4252 45.3974 12.4543 45.3164 12.4543ZM45.5302 12.8869V15.5508H45.0879V12.8869H45.5302ZM46.6293 13.2515V14.8216C46.6293 14.9513 46.6568 15.0436 46.7119 15.0987C46.767 15.1506 46.8626 15.1765 46.9987 15.1765H47.3244V15.5508H46.9258C46.6795 15.5508 46.4948 15.4941 46.3717 15.3806C46.2485 15.2672 46.1869 15.0809 46.1869 14.8216V13.2515H45.8418V12.8869H46.1869V12.2161H46.6293V12.8869H47.3244V13.2515H46.6293ZM49.9292 15.5945C49.6797 15.5945 49.4528 15.5378 49.2487 15.4244C49.0478 15.311 48.889 15.1506 48.7723 14.9432C48.6589 14.7325 48.6022 14.4895 48.6022 14.214C48.6022 13.9418 48.6605 13.702 48.7772 13.4946C48.8971 13.2839 49.0591 13.1235 49.2633 13.0133C49.4674 12.8999 49.6959 12.8432 49.9487 12.8432C50.2014 12.8432 50.4299 12.8999 50.6341 13.0133C50.8382 13.1235 50.9987 13.2823 51.1153 13.4897C51.2352 13.6971 51.2952 13.9385 51.2952 14.214C51.2952 14.4895 51.2336 14.7325 51.1105 14.9432C50.9905 15.1506 50.8269 15.311 50.6195 15.4244C50.4121 15.5378 50.182 15.5945 49.9292 15.5945ZM49.9292 15.2056C50.088 15.2056 50.2371 15.1684 50.3764 15.0938C50.5158 15.0193 50.6276 14.9075 50.7119 14.7584C50.7993 14.6094 50.8431 14.4279 50.8431 14.214C50.8431 14.0001 50.801 13.8186 50.7167 13.6696C50.6325 13.5205 50.5223 13.4103 50.3862 13.339C50.2501 13.2645 50.1026 13.2272 49.9438 13.2272C49.7818 13.2272 49.6327 13.2645 49.4966 13.339C49.3637 13.4103 49.2568 13.5205 49.1758 13.6696C49.0948 13.8186 49.0542 14.0001 49.0542 14.214C49.0542 14.4311 49.0931 14.6142 49.1709 14.7633C49.2519 14.9124 49.3589 15.0242 49.4917 15.0987C49.6246 15.17 49.7704 15.2056 49.9292 15.2056ZM52.9802 12.8383C53.3043 12.8383 53.5668 12.9372 53.7677 13.1349C53.9686 13.3293 54.0691 13.6112 54.0691 13.9807V15.5508H53.6316V14.0439C53.6316 13.7781 53.5652 13.5756 53.4323 13.4362C53.2994 13.2937 53.118 13.2224 52.8879 13.2224C52.6545 13.2224 52.4682 13.2953 52.3289 13.4411C52.1928 13.5869 52.1247 13.7992 52.1247 14.0779V15.5508H51.6823V12.8869H52.1247V13.2661C52.2122 13.13 52.3305 13.0247 52.4796 12.9501C52.6319 12.8756 52.7988 12.8383 52.9802 12.8383Z" fill="#073042"/>
<path d="M39.5707 22.7935H37.4086L37.0508 23.8279H35.9075L37.8597 18.3913H39.1274L41.0796 23.8279H39.9285L39.5707 22.7935ZM39.2752 21.9224L38.4897 19.6513L37.7041 21.9224H39.2752ZM42.5871 20.1413C42.7271 19.9443 42.9189 19.7809 43.1626 19.6513C43.4115 19.5165 43.6941 19.4491 44.0104 19.4491C44.3785 19.4491 44.7104 19.5398 45.0059 19.7213C45.3066 19.9028 45.5426 20.162 45.7137 20.4991C45.89 20.8309 45.9781 21.2172 45.9781 21.6579C45.9781 22.0987 45.89 22.4901 45.7137 22.8323C45.5426 23.1694 45.3066 23.4312 45.0059 23.6179C44.7104 23.8045 44.3785 23.8979 44.0104 23.8979C43.6941 23.8979 43.4141 23.8331 43.1704 23.7034C42.9319 23.5738 42.7374 23.4105 42.5871 23.2134V25.8812H41.4982V19.5191H42.5871V20.1413ZM44.8659 21.6579C44.8659 21.3987 44.8115 21.1757 44.7026 20.9891C44.5989 20.7972 44.4589 20.652 44.2826 20.5535C44.1115 20.455 43.9248 20.4057 43.7226 20.4057C43.5256 20.4057 43.3389 20.4576 43.1626 20.5613C42.9915 20.6598 42.8515 20.805 42.7426 20.9968C42.6389 21.1887 42.5871 21.4142 42.5871 21.6735C42.5871 21.9327 42.6389 22.1583 42.7426 22.3501C42.8515 22.542 42.9915 22.6898 43.1626 22.7935C43.3389 22.892 43.5256 22.9412 43.7226 22.9412C43.9248 22.9412 44.1115 22.8894 44.2826 22.7857C44.4589 22.682 44.5989 22.5342 44.7026 22.3424C44.8115 22.1505 44.8659 21.9224 44.8659 21.6579ZM47.5471 20.1413C47.6871 19.9443 47.879 19.7809 48.1227 19.6513C48.3715 19.5165 48.6541 19.4491 48.9704 19.4491C49.3386 19.4491 49.6704 19.5398 49.966 19.7213C50.2667 19.9028 50.5026 20.162 50.6737 20.4991C50.85 20.8309 50.9382 21.2172 50.9382 21.6579C50.9382 22.0987 50.85 22.4901 50.6737 22.8323C50.5026 23.1694 50.2667 23.4312 49.966 23.6179C49.6704 23.8045 49.3386 23.8979 48.9704 23.8979C48.6541 23.8979 48.3741 23.8331 48.1304 23.7034C47.8919 23.5738 47.6975 23.4105 47.5471 23.2134V25.8812H46.4582V19.5191H47.5471V20.1413ZM49.826 21.6579C49.826 21.3987 49.7715 21.1757 49.6626 20.9891C49.5589 20.7972 49.4189 20.652 49.2426 20.5535C49.0715 20.455 48.8849 20.4057 48.6826 20.4057C48.4856 20.4057 48.299 20.4576 48.1227 20.5613C47.9516 20.6598 47.8116 20.805 47.7027 20.9968C47.599 21.1887 47.5471 21.4142 47.5471 21.6735C47.5471 21.9327 47.599 22.1583 47.7027 22.3501C47.8116 22.542 47.9516 22.6898 48.1227 22.7935C48.299 22.892 48.4856 22.9412 48.6826 22.9412C48.8849 22.9412 49.0715 22.8894 49.2426 22.7857C49.4189 22.682 49.5589 22.5342 49.6626 22.3424C49.7715 22.1505 49.826 21.9224 49.826 21.6579ZM54.8349 23.8823C54.4564 23.8823 54.1141 23.8175 53.8082 23.6879C53.5075 23.5583 53.269 23.3716 53.0927 23.1279C52.9164 22.8842 52.8256 22.5964 52.8205 22.2646H53.9871C54.0027 22.4875 54.0804 22.6638 54.2204 22.7935C54.3656 22.9231 54.5626 22.9879 54.8115 22.9879C55.0656 22.9879 55.2652 22.9283 55.4104 22.809C55.5556 22.6846 55.6282 22.5238 55.6282 22.3268C55.6282 22.1661 55.5789 22.0338 55.4804 21.9301C55.3819 21.8264 55.2574 21.7461 55.1071 21.689C54.9619 21.6268 54.7597 21.5594 54.5004 21.4868C54.1478 21.3831 53.8601 21.282 53.6371 21.1835C53.4193 21.0798 53.2301 20.9268 53.0693 20.7246C52.9138 20.5172 52.836 20.2424 52.836 19.9002C52.836 19.5787 52.9164 19.2987 53.0771 19.0602C53.2379 18.8217 53.4634 18.6402 53.7538 18.5158C54.0441 18.3861 54.376 18.3213 54.7493 18.3213C55.3093 18.3213 55.763 18.4587 56.1104 18.7335C56.463 19.0032 56.6574 19.3817 56.6937 19.8691H55.496C55.4856 19.6824 55.4052 19.5295 55.2549 19.4102C55.1097 19.2858 54.9152 19.2235 54.6715 19.2235C54.4589 19.2235 54.2878 19.278 54.1582 19.3869C54.0338 19.4957 53.9715 19.6539 53.9715 19.8613C53.9715 20.0065 54.0182 20.1283 54.1115 20.2268C54.2101 20.3202 54.3293 20.398 54.4693 20.4602C54.6145 20.5172 54.8167 20.5846 55.076 20.6624C55.4286 20.7661 55.7163 20.8698 55.9393 20.9735C56.1622 21.0772 56.3541 21.2327 56.5148 21.4402C56.6756 21.6476 56.7559 21.9198 56.7559 22.2568C56.7559 22.5472 56.6808 22.8168 56.5304 23.0657C56.38 23.3146 56.1597 23.5142 55.8693 23.6646C55.5789 23.8097 55.2341 23.8823 54.8349 23.8823ZM58.6566 20.4135V22.4979C58.6566 22.6431 58.6903 22.7494 58.7577 22.8168C58.8303 22.879 58.9495 22.9101 59.1155 22.9101H59.621V23.8279H58.9366C58.0188 23.8279 57.5599 23.382 57.5599 22.4901V20.4135H57.0466V19.5191H57.5599V18.4535H58.6566V19.5191H59.621V20.4135H58.6566ZM62.0064 23.8979C61.5916 23.8979 61.2182 23.8071 60.8864 23.6257C60.5546 23.439 60.2927 23.1772 60.1009 22.8401C59.9142 22.5031 59.8209 22.1142 59.8209 21.6735C59.8209 21.2327 59.9168 20.8439 60.1086 20.5068C60.3057 20.1698 60.5727 19.9106 60.9097 19.7291C61.2468 19.5424 61.6227 19.4491 62.0375 19.4491C62.4523 19.4491 62.8282 19.5424 63.1652 19.7291C63.5023 19.9106 63.7667 20.1698 63.9586 20.5068C64.1556 20.8439 64.2541 21.2327 64.2541 21.6735C64.2541 22.1142 64.153 22.5031 63.9508 22.8401C63.7537 23.1772 63.4841 23.439 63.1419 23.6257C62.8049 23.8071 62.4264 23.8979 62.0064 23.8979ZM62.0064 22.949C62.2034 22.949 62.3875 22.9023 62.5586 22.809C62.7349 22.7105 62.8749 22.5653 62.9786 22.3735C63.0823 22.1816 63.1341 21.9483 63.1341 21.6735C63.1341 21.2639 63.0252 20.9502 62.8075 20.7324C62.5949 20.5094 62.333 20.398 62.0219 20.398C61.7108 20.398 61.449 20.5094 61.2364 20.7324C61.029 20.9502 60.9253 21.2639 60.9253 21.6735C60.9253 22.0831 61.0264 22.3994 61.2286 22.6224C61.436 22.8401 61.6953 22.949 62.0064 22.949ZM65.8306 20.188C65.9706 19.9598 66.1521 19.7809 66.375 19.6513C66.6032 19.5217 66.8624 19.4569 67.1528 19.4569V20.6002H66.865C66.5228 20.6002 66.2635 20.6805 66.0873 20.8413C65.9161 21.002 65.8306 21.282 65.8306 21.6813V23.8279H64.7417V19.5191H65.8306V20.188ZM71.5806 21.5801C71.5806 21.7357 71.5702 21.8757 71.5494 22.0001H68.3995C68.4254 22.3112 68.5343 22.5549 68.7262 22.7312C68.918 22.9075 69.1539 22.9957 69.4339 22.9957C69.8384 22.9957 70.1261 22.822 70.2973 22.4746H71.4717C71.3472 22.8894 71.1087 23.2316 70.7561 23.5012C70.4035 23.7657 69.9706 23.8979 69.4573 23.8979C69.0425 23.8979 68.6691 23.8071 68.3373 23.6257C68.0106 23.439 67.754 23.1772 67.5673 22.8401C67.3858 22.5031 67.2951 22.1142 67.2951 21.6735C67.2951 21.2276 67.3858 20.8361 67.5673 20.4991C67.7488 20.162 68.0029 19.9028 68.3295 19.7213C68.6562 19.5398 69.0321 19.4491 69.4573 19.4491C69.8669 19.4491 70.2324 19.5372 70.5539 19.7135C70.8806 19.8898 71.1321 20.1413 71.3083 20.468C71.4898 20.7894 71.5806 21.1602 71.5806 21.5801ZM70.4528 21.269C70.4476 20.9891 70.3465 20.7661 70.1495 20.6002C69.9524 20.4291 69.7113 20.3435 69.4262 20.3435C69.1565 20.3435 68.9284 20.4265 68.7417 20.5924C68.5603 20.7531 68.4488 20.9787 68.4073 21.269H70.4528Z" fill="#073042"/>
<path d="M22.3699 25.5396C18.1012 25.5396 14.6409 22.0793 14.6409 17.8105C14.6409 13.5418 18.1012 10.0815 22.3699 10.0815C26.6386 10.0815 30.0989 13.5418 30.0989 17.8105C30.0943 22.077 26.6363 25.5349 22.3699 25.5396ZM19.0673 19.9646C18.9676 19.9646 18.8687 19.977 18.7713 20.0002L18.6553 20.0319L18.1962 20.8179C18.1124 20.9578 18.0855 21.1245 18.121 21.2837C18.1566 21.4429 18.2519 21.5823 18.3874 21.6732C18.5228 21.764 18.6879 21.7994 18.8487 21.772C19.0095 21.7446 19.1536 21.6565 19.2513 21.5259L19.2992 21.454L19.9098 20.3944C19.8108 20.262 19.6826 20.1543 19.5351 20.0798C19.3876 20.0052 19.2248 19.9658 19.0596 19.9646H19.0673ZM23.3059 15.2291C23.0654 15.455 22.906 15.7537 22.8522 16.0793C22.766 16.5281 22.8486 16.993 23.0841 17.3847L25.4337 21.4548C25.5155 21.5924 25.6459 21.6943 25.7991 21.7403C25.9524 21.7864 26.1174 21.7733 26.2615 21.7037C26.4051 21.6328 26.5168 21.5103 26.5741 21.3608C26.6314 21.2112 26.6302 21.0455 26.5706 20.8967L26.5327 20.8195L25.9144 19.7443H26.8342C26.9953 19.743 27.1498 19.6806 27.2667 19.5697C27.3835 19.4589 27.454 19.3078 27.4638 19.147C27.4736 18.9862 27.422 18.8277 27.3195 18.7035C27.217 18.5792 27.0712 18.4985 26.9115 18.4776L26.8342 18.4729H25.1802L23.4844 15.5359L23.3074 15.2267L23.3059 15.2291ZM17.9335 18.4675C17.8504 18.4677 17.7682 18.4843 17.6916 18.5163C17.6149 18.5483 17.5454 18.5952 17.4869 18.6541C17.4283 18.713 17.382 18.783 17.3506 18.8598C17.3191 18.9367 17.3031 19.019 17.3035 19.1021C17.3035 19.422 17.5416 19.6926 17.8593 19.7335L17.9365 19.7374H23.7178C23.7818 19.6089 23.814 19.467 23.8117 19.3234C23.8095 19.1799 23.7727 19.0391 23.7047 18.9127C23.6468 18.7943 23.5606 18.6921 23.4537 18.6151C23.3467 18.5381 23.2224 18.4887 23.0918 18.4714L22.9983 18.4667H21.0266L23.7534 13.7451C23.8374 13.5987 23.8602 13.4251 23.8168 13.262C23.7859 13.1476 23.7237 13.044 23.6372 12.963C23.5507 12.882 23.4433 12.8267 23.327 12.8034C23.2108 12.7801 23.0904 12.7897 22.9793 12.8312C22.8683 12.8726 22.771 12.9442 22.6984 13.0379L22.6505 13.109L22.3699 13.599L22.0924 13.109C22.0107 12.9712 21.8801 12.8692 21.7267 12.8231C21.5732 12.777 21.4081 12.7902 21.2639 12.8601C21.1203 12.9313 21.0087 13.0539 20.9515 13.2035C20.8942 13.3532 20.8953 13.519 20.9547 13.6678L20.9926 13.7451L21.6341 14.8735L19.5589 18.4675H17.9335Z" fill="url(#paint0_linear_8091_13356)"/>
<defs>
<linearGradient id="paint0_linear_8091_13356" x1="22.3699" y1="10.0815" x2="22.3699" y2="25.5396" gradientUnits="userSpaceOnUse">
<stop stop-color="#1BB8FA"/>
<stop offset="1" stop-color="#1B83F6"/>
</linearGradient>
</defs>
</svg>
