<svg width="223" height="89" viewBox="0 0 223 89" fill="none" xmlns="http://www.w3.org/2000/svg">
<path d="M0.917969 40.6981C0.917969 21.8419 0.917969 12.4138 6.77583 6.55592C12.6337 0.698059 22.0618 0.698059 40.918 0.698059H182.836C201.692 0.698059 211.12 0.698059 216.978 6.55592C222.836 12.4138 222.836 21.8419 222.836 40.6981V48.9747C222.836 67.8308 222.836 77.2589 216.978 83.1168C211.12 88.9747 201.692 88.9747 182.836 88.9747H40.918C22.0618 88.9747 12.6337 88.9747 6.77583 83.1168C0.917969 77.2589 0.917969 67.8308 0.917969 48.9747V40.6981Z" fill="#1F2C46"/>
<path fill-rule="evenodd" clip-rule="evenodd" d="M182.836 1.69806H40.918C31.4616 1.69806 24.4699 1.70018 19.1058 2.42137C13.7704 3.1387 10.1951 4.55087 7.48294 7.26303C4.77078 9.97519 3.35861 13.5505 2.64128 18.8859C1.92009 24.25 1.91797 31.2417 1.91797 40.6981V48.9747C1.91797 58.431 1.92009 65.4227 2.64128 70.7868C3.35861 76.1222 4.77078 79.6975 7.48294 82.4097C10.1951 85.1218 13.7704 86.534 19.1058 87.2513C24.4699 87.9725 31.4616 87.9747 40.918 87.9747H182.836C192.292 87.9747 199.284 87.9725 204.648 87.2513C209.983 86.534 213.558 85.1218 216.271 82.4097C218.983 79.6975 220.395 76.1222 221.112 70.7868C221.833 65.4227 221.836 58.431 221.836 48.9747V40.6981C221.836 31.2417 221.833 24.25 221.112 18.8859C220.395 13.5505 218.983 9.97519 216.271 7.26303C213.558 4.55087 209.983 3.1387 204.648 2.42137C199.284 1.70018 192.292 1.69806 182.836 1.69806ZM6.77583 6.55592C0.917969 12.4138 0.917969 21.8419 0.917969 40.6981V48.9747C0.917969 67.8308 0.917969 77.2589 6.77583 83.1168C12.6337 88.9747 22.0618 88.9747 40.918 88.9747H182.836C201.692 88.9747 211.12 88.9747 216.978 83.1168C222.836 77.2589 222.836 67.8308 222.836 48.9747V40.6981C222.836 21.8419 222.836 12.4138 216.978 6.55592C211.12 0.698059 201.692 0.698059 182.836 0.698059H40.918C22.0618 0.698059 12.6337 0.698059 6.77583 6.55592Z" fill="white"/>
<path d="M86.8856 31.9475C86.6923 31.5409 86.4123 31.2275 86.0456 31.0075C85.679 30.7809 85.2523 30.6675 84.7656 30.6675C84.279 30.6675 83.839 30.7809 83.4456 31.0075C83.059 31.2275 82.7523 31.5475 82.5256 31.9675C82.3056 32.3809 82.1956 32.8609 82.1956 33.4075C82.1956 33.9542 82.3056 34.4342 82.5256 34.8475C82.7523 35.2609 83.059 35.5809 83.4456 35.8075C83.839 36.0275 84.279 36.1375 84.7656 36.1375C85.4456 36.1375 86.0056 35.9342 86.4456 35.5275C86.8856 35.1209 87.1423 34.5709 87.2156 33.8775H84.4356V33.1375H88.1856V33.8375C88.1323 34.4109 87.9523 34.9375 87.6456 35.4175C87.339 35.8909 86.9356 36.2675 86.4356 36.5475C85.9356 36.8209 85.379 36.9575 84.7656 36.9575C84.119 36.9575 83.529 36.8075 82.9956 36.5075C82.4623 36.2009 82.039 35.7775 81.7256 35.2375C81.419 34.6975 81.2656 34.0875 81.2656 33.4075C81.2656 32.7275 81.419 32.1175 81.7256 31.5775C82.039 31.0309 82.4623 30.6075 82.9956 30.3075C83.529 30.0009 84.119 29.8475 84.7656 29.8475C85.5056 29.8475 86.159 30.0309 86.7256 30.3975C87.299 30.7642 87.7156 31.2809 87.9756 31.9475H86.8856Z" fill="white"/>
<path d="M93.9888 33.9475C93.9888 34.1209 93.9788 34.3042 93.9588 34.4975H89.5788C89.6122 35.0375 89.7955 35.4609 90.1288 35.7675C90.4688 36.0675 90.8788 36.2175 91.3588 36.2175C91.7522 36.2175 92.0788 36.1275 92.3388 35.9475C92.6055 35.7609 92.7922 35.5142 92.8988 35.2075H93.8788C93.7322 35.7342 93.4388 36.1642 92.9988 36.4975C92.5588 36.8242 92.0122 36.9875 91.3588 36.9875C90.8388 36.9875 90.3722 36.8709 89.9588 36.6375C89.5522 36.4042 89.2322 36.0742 88.9988 35.6475C88.7655 35.2142 88.6488 34.7142 88.6488 34.1475C88.6488 33.5809 88.7622 33.0842 88.9888 32.6575C89.2155 32.2309 89.5322 31.9042 89.9388 31.6775C90.3522 31.4442 90.8255 31.3275 91.3588 31.3275C91.8788 31.3275 92.3388 31.4409 92.7388 31.6675C93.1388 31.8942 93.4455 32.2075 93.6588 32.6075C93.8788 33.0009 93.9888 33.4475 93.9888 33.9475ZM93.0488 33.7575C93.0488 33.4109 92.9722 33.1142 92.8188 32.8675C92.6655 32.6142 92.4555 32.4242 92.1888 32.2975C91.9288 32.1642 91.6388 32.0975 91.3188 32.0975C90.8588 32.0975 90.4655 32.2442 90.1388 32.5375C89.8188 32.8309 89.6355 33.2375 89.5888 33.7575H93.0488Z" fill="white"/>
<path d="M95.9 32.1675V35.3975C95.9 35.6642 95.9567 35.8542 96.07 35.9675C96.1833 36.0742 96.38 36.1275 96.66 36.1275H97.33V36.8975H96.51C96.0033 36.8975 95.6233 36.7809 95.37 36.5475C95.1167 36.3142 94.99 35.9309 94.99 35.3975V32.1675H94.28V31.4175H94.99V30.0375H95.9V31.4175H97.33V32.1675H95.9Z" fill="white"/>
<path d="M100.769 30.5275C100.595 30.5275 100.449 30.4675 100.329 30.3475C100.209 30.2275 100.149 30.0809 100.149 29.9075C100.149 29.7342 100.209 29.5875 100.329 29.4675C100.449 29.3475 100.595 29.2875 100.769 29.2875C100.935 29.2875 101.075 29.3475 101.189 29.4675C101.309 29.5875 101.369 29.7342 101.369 29.9075C101.369 30.0809 101.309 30.2275 101.189 30.3475C101.075 30.4675 100.935 30.5275 100.769 30.5275ZM101.209 31.4175V36.8975H100.299V31.4175H101.209Z" fill="white"/>
<path d="M103.47 32.1675V35.3975C103.47 35.6642 103.526 35.8542 103.64 35.9675C103.753 36.0742 103.95 36.1275 104.23 36.1275H104.9V36.8975H104.08C103.573 36.8975 103.193 36.7809 102.94 36.5475C102.686 36.3142 102.56 35.9309 102.56 35.3975V32.1675H101.85V31.4175H102.56V30.0375H103.47V31.4175H104.9V32.1675H103.47Z" fill="white"/>
<path d="M110.258 36.9875C109.745 36.9875 109.278 36.8709 108.858 36.6375C108.445 36.4042 108.118 36.0742 107.878 35.6475C107.645 35.2142 107.528 34.7142 107.528 34.1475C107.528 33.5875 107.648 33.0942 107.888 32.6675C108.135 32.2342 108.468 31.9042 108.888 31.6775C109.308 31.4442 109.778 31.3275 110.298 31.3275C110.818 31.3275 111.288 31.4442 111.708 31.6775C112.128 31.9042 112.458 32.2309 112.698 32.6575C112.945 33.0842 113.068 33.5809 113.068 34.1475C113.068 34.7142 112.941 35.2142 112.688 35.6475C112.441 36.0742 112.105 36.4042 111.678 36.6375C111.251 36.8709 110.778 36.9875 110.258 36.9875ZM110.258 36.1875C110.585 36.1875 110.891 36.1109 111.178 35.9575C111.465 35.8042 111.695 35.5742 111.868 35.2675C112.048 34.9609 112.138 34.5875 112.138 34.1475C112.138 33.7075 112.051 33.3342 111.878 33.0275C111.705 32.7209 111.478 32.4942 111.198 32.3475C110.918 32.1942 110.615 32.1175 110.288 32.1175C109.955 32.1175 109.648 32.1942 109.368 32.3475C109.095 32.4942 108.875 32.7209 108.708 33.0275C108.541 33.3342 108.458 33.7075 108.458 34.1475C108.458 34.5942 108.538 34.9709 108.698 35.2775C108.865 35.5842 109.085 35.8142 109.358 35.9675C109.631 36.1142 109.931 36.1875 110.258 36.1875Z" fill="white"/>
<path d="M116.535 31.3175C117.201 31.3175 117.741 31.5209 118.155 31.9275C118.568 32.3275 118.775 32.9075 118.775 33.6675V36.8975H117.875V33.7975C117.875 33.2509 117.738 32.8342 117.465 32.5475C117.191 32.2542 116.818 32.1075 116.345 32.1075C115.865 32.1075 115.481 32.2575 115.195 32.5575C114.915 32.8575 114.775 33.2942 114.775 33.8675V36.8975H113.865V31.4175H114.775V32.1975C114.955 31.9175 115.198 31.7009 115.505 31.5475C115.818 31.3942 116.161 31.3175 116.535 31.3175Z" fill="white"/>
<path d="M89.7145 49.0284C89.4585 48.559 89.1065 48.2017 88.6585 47.9564C88.2105 47.711 87.6879 47.5884 87.0905 47.5884C86.4292 47.5884 85.8425 47.7377 85.3305 48.0364C84.8185 48.335 84.4185 48.7617 84.1305 49.3164C83.8425 49.871 83.6985 50.511 83.6985 51.2364C83.6985 51.983 83.8425 52.6337 84.1305 53.1884C84.4292 53.743 84.8399 54.1697 85.3625 54.4684C85.8852 54.767 86.4932 54.9164 87.1865 54.9164C88.0399 54.9164 88.7385 54.6924 89.2825 54.2444C89.8265 53.7857 90.1839 53.151 90.3545 52.3404H86.5145V50.6284H92.5625V52.5804C92.4132 53.359 92.0932 54.079 91.6025 54.7404C91.1119 55.4017 90.4772 55.935 89.6985 56.3404C88.9305 56.735 88.0665 56.9324 87.1065 56.9324C86.0292 56.9324 85.0532 56.6924 84.1785 56.2124C83.3145 55.7217 82.6319 55.0444 82.1305 54.1804C81.6399 53.3164 81.3945 52.335 81.3945 51.2364C81.3945 50.1377 81.6399 49.1564 82.1305 48.2924C82.6319 47.4177 83.3145 46.7404 84.1785 46.2604C85.0532 45.7697 86.0239 45.5244 87.0905 45.5244C88.3492 45.5244 89.4425 45.8337 90.3705 46.4524C91.2985 47.0604 91.9385 47.919 92.2905 49.0284H89.7145Z" fill="white"/>
<path d="M97.5158 56.9804C96.6624 56.9804 95.8944 56.7937 95.2118 56.4204C94.5291 56.0364 93.9904 55.4977 93.5958 54.8044C93.2118 54.111 93.0198 53.311 93.0198 52.4044C93.0198 51.4977 93.2171 50.6977 93.6118 50.0044C94.0171 49.311 94.5664 48.7777 95.2598 48.4044C95.9531 48.0204 96.7264 47.8284 97.5798 47.8284C98.4331 47.8284 99.2064 48.0204 99.8998 48.4044C100.593 48.7777 101.137 49.311 101.532 50.0044C101.937 50.6977 102.14 51.4977 102.14 52.4044C102.14 53.311 101.932 54.111 101.516 54.8044C101.11 55.4977 100.556 56.0364 99.8518 56.4204C99.1584 56.7937 98.3798 56.9804 97.5158 56.9804ZM97.5158 55.0284C97.9211 55.0284 98.2998 54.9324 98.6518 54.7404C99.0144 54.5377 99.3024 54.239 99.5158 53.8444C99.7291 53.4497 99.8358 52.9697 99.8358 52.4044C99.8358 51.5617 99.6118 50.9164 99.1638 50.4684C98.7264 50.0097 98.1878 49.7804 97.5478 49.7804C96.9078 49.7804 96.3691 50.0097 95.9318 50.4684C95.5051 50.9164 95.2918 51.5617 95.2918 52.4044C95.2918 53.247 95.4998 53.8977 95.9158 54.3564C96.3424 54.8044 96.8758 55.0284 97.5158 55.0284Z" fill="white"/>
<path d="M107.079 56.9804C106.226 56.9804 105.458 56.7937 104.775 56.4204C104.092 56.0364 103.554 55.4977 103.159 54.8044C102.775 54.111 102.583 53.311 102.583 52.4044C102.583 51.4977 102.78 50.6977 103.175 50.0044C103.58 49.311 104.13 48.7777 104.823 48.4044C105.516 48.0204 106.29 47.8284 107.143 47.8284C107.996 47.8284 108.77 48.0204 109.463 48.4044C110.156 48.7777 110.7 49.311 111.095 50.0044C111.5 50.6977 111.703 51.4977 111.703 52.4044C111.703 53.311 111.495 54.111 111.079 54.8044C110.674 55.4977 110.119 56.0364 109.415 56.4204C108.722 56.7937 107.943 56.9804 107.079 56.9804ZM107.079 55.0284C107.484 55.0284 107.863 54.9324 108.215 54.7404C108.578 54.5377 108.866 54.239 109.079 53.8444C109.292 53.4497 109.399 52.9697 109.399 52.4044C109.399 51.5617 109.175 50.9164 108.727 50.4684C108.29 50.0097 107.751 49.7804 107.111 49.7804C106.471 49.7804 105.932 50.0097 105.495 50.4684C105.068 50.9164 104.855 51.5617 104.855 52.4044C104.855 53.247 105.063 53.8977 105.479 54.3564C105.906 54.8044 106.439 55.0284 107.079 55.0284Z" fill="white"/>
<path d="M116.178 47.8284C116.839 47.8284 117.421 47.9617 117.922 48.2284C118.423 48.4844 118.818 48.8204 119.106 49.2364V47.9724H121.362V56.9004C121.362 57.7217 121.197 58.4524 120.866 59.0924C120.535 59.743 120.039 60.255 119.378 60.6284C118.717 61.0124 117.917 61.2044 116.978 61.2044C115.719 61.2044 114.685 60.911 113.874 60.3244C113.074 59.7377 112.621 58.9377 112.514 57.9244H114.738C114.855 58.3297 115.106 58.6497 115.49 58.8844C115.885 59.1297 116.359 59.2524 116.914 59.2524C117.565 59.2524 118.093 59.055 118.498 58.6604C118.903 58.2764 119.106 57.6897 119.106 56.9004V55.5244C118.818 55.9404 118.418 56.287 117.906 56.5644C117.405 56.8417 116.829 56.9804 116.178 56.9804C115.431 56.9804 114.749 56.7884 114.13 56.4044C113.511 56.0204 113.021 55.4817 112.658 54.7884C112.306 54.0844 112.13 53.279 112.13 52.3724C112.13 51.4764 112.306 50.6817 112.658 49.9884C113.021 49.295 113.506 48.7617 114.114 48.3884C114.733 48.015 115.421 47.8284 116.178 47.8284ZM119.106 52.4044C119.106 51.8604 118.999 51.3964 118.786 51.0124C118.573 50.6177 118.285 50.319 117.922 50.1164C117.559 49.903 117.17 49.7964 116.754 49.7964C116.338 49.7964 115.954 49.8977 115.602 50.1004C115.25 50.303 114.962 50.6017 114.738 50.9964C114.525 51.3804 114.418 51.839 114.418 52.3724C114.418 52.9057 114.525 53.375 114.738 53.7804C114.962 54.175 115.25 54.479 115.602 54.6924C115.965 54.9057 116.349 55.0124 116.754 55.0124C117.17 55.0124 117.559 54.911 117.922 54.7084C118.285 54.495 118.573 54.1964 118.786 53.8124C118.999 53.4177 119.106 52.9484 119.106 52.4044Z" fill="white"/>
<path d="M125.15 44.9964V56.8364H122.91V44.9964H125.15Z" fill="white"/>
<path d="M134.963 52.2124C134.963 52.5324 134.942 52.8204 134.899 53.0764H128.419C128.472 53.7164 128.696 54.2177 129.091 54.5804C129.486 54.943 129.971 55.1244 130.547 55.1244C131.379 55.1244 131.971 54.767 132.323 54.0524H134.739C134.483 54.9057 133.992 55.6097 133.267 56.1644C132.542 56.7084 131.651 56.9804 130.595 56.9804C129.742 56.9804 128.974 56.7937 128.291 56.4204C127.619 56.0364 127.091 55.4977 126.707 54.8044C126.334 54.111 126.147 53.311 126.147 52.4044C126.147 51.487 126.334 50.6817 126.707 49.9884C127.08 49.295 127.603 48.7617 128.275 48.3884C128.947 48.015 129.72 47.8284 130.595 47.8284C131.438 47.8284 132.19 48.0097 132.851 48.3724C133.523 48.735 134.04 49.2524 134.403 49.9244C134.776 50.5857 134.963 51.3484 134.963 52.2124ZM132.643 51.5724C132.632 50.9964 132.424 50.5377 132.019 50.1964C131.614 49.8444 131.118 49.6684 130.531 49.6684C129.976 49.6684 129.507 49.839 129.123 50.1804C128.75 50.511 128.52 50.975 128.435 51.5724H132.643Z" fill="white"/>
<path d="M147.274 49.1244C147.274 49.7217 147.13 50.2817 146.842 50.8044C146.565 51.327 146.122 51.7484 145.514 52.0684C144.917 52.3884 144.16 52.5484 143.242 52.5484H141.37V56.8364H139.13V45.6684H143.242C144.106 45.6684 144.842 45.8177 145.45 46.1164C146.058 46.415 146.512 46.8257 146.81 47.3484C147.12 47.871 147.274 48.463 147.274 49.1244ZM143.146 50.7404C143.765 50.7404 144.224 50.6017 144.522 50.3244C144.821 50.0364 144.97 49.6364 144.97 49.1244C144.97 48.0364 144.362 47.4924 143.146 47.4924H141.37V50.7404H143.146Z" fill="white"/>
<path d="M150.465 44.9964V56.8364H148.225V44.9964H150.465Z" fill="white"/>
<path d="M151.462 52.3724C151.462 51.4764 151.638 50.6817 151.99 49.9884C152.353 49.295 152.838 48.7617 153.446 48.3884C154.065 48.015 154.753 47.8284 155.51 47.8284C156.171 47.8284 156.747 47.9617 157.238 48.2284C157.739 48.495 158.139 48.831 158.438 49.2364V47.9724H160.694V56.8364H158.438V55.5404C158.15 55.9564 157.75 56.303 157.238 56.5804C156.737 56.847 156.155 56.9804 155.494 56.9804C154.747 56.9804 154.065 56.7884 153.446 56.4044C152.838 56.0204 152.353 55.4817 151.99 54.7884C151.638 54.0844 151.462 53.279 151.462 52.3724ZM158.438 52.4044C158.438 51.8604 158.331 51.3964 158.118 51.0124C157.905 50.6177 157.617 50.319 157.254 50.1164C156.891 49.903 156.502 49.7964 156.086 49.7964C155.67 49.7964 155.286 49.8977 154.934 50.1004C154.582 50.303 154.294 50.6017 154.07 50.9964C153.857 51.3804 153.75 51.839 153.75 52.3724C153.75 52.9057 153.857 53.375 154.07 53.7804C154.294 54.175 154.582 54.479 154.934 54.6924C155.297 54.9057 155.681 55.0124 156.086 55.0124C156.502 55.0124 156.891 54.911 157.254 54.7084C157.617 54.495 157.905 54.1964 158.118 53.8124C158.331 53.4177 158.438 52.9484 158.438 52.4044Z" fill="white"/>
<path d="M170.722 47.9724L165.234 61.0284H162.85L164.77 56.6124L161.218 47.9724H163.73L166.018 54.1644L168.338 47.9724H170.722Z" fill="white"/>
<path d="M36.7463 27.6714C35.848 28.141 35.248 28.9973 35.248 30.1089V60.5836C35.248 61.6952 35.8491 62.5515 36.7463 63.0211L54.467 45.3424L36.7463 27.6714Z" fill="#00CBFF"/>
<path d="M40.724 62.1316L60.1153 50.9996L55.9653 46.8495L40.724 62.1316Z" fill="#F4334A"/>
<path d="M66.1084 43.2508L62.0412 40.8962L57.5044 45.3501L62.0412 49.8041L66.1913 47.4495C67.4343 46.4628 67.4343 44.2386 66.1084 43.2508Z" fill="#FFC400"/>
<path d="M55.9642 43.8519L40.7229 28.5697L60.1142 39.7018L55.9642 43.8519Z" fill="#09E275"/>
</svg>
