<svg width="16" height="16" viewBox="0 0 16 16" fill="none" xmlns="http://www.w3.org/2000/svg">
<path d="M3.13696 0.00415039C1.41349 0.00415039 0.00292969 1.41468 0.00292969 3.13818V12.8636C0.00292969 14.5871 1.41346 15.9972 3.13696 15.9972H12.8624C14.5859 15.9972 15.996 14.5871 15.996 12.8636V3.13818C15.996 1.41471 14.5859 0.00415039 12.8624 0.00415039H3.13696ZM3.92522 2.64332C4.75159 2.64332 5.2606 3.18581 5.27631 3.89892C5.27631 4.59628 4.75156 5.15402 3.90924 5.15402H3.89373C3.08309 5.15402 2.55914 4.59631 2.55914 3.89892C2.55914 3.18583 3.09895 2.64332 3.9252 2.64332H3.92522ZM11.0465 5.97628C12.6358 5.97628 13.8271 7.01503 13.8271 9.24725V13.4144H11.4119V9.52665C11.4119 8.54969 11.0623 7.88316 10.1883 7.88316C9.52102 7.88316 9.12329 8.33241 8.94866 8.76639C8.88487 8.92165 8.86919 9.1385 8.86919 9.3557V13.4144H6.45394C6.45394 13.4144 6.48564 6.82863 6.45394 6.14671H8.86969V7.17589C9.19065 6.68069 9.76476 5.97626 11.0465 5.97626V5.97628ZM2.7016 6.14724H5.11685V13.4145H2.7016V6.14724Z" fill="white"/>
</svg>
