<svg width="21" height="19" viewBox="0 0 21 19" fill="none" xmlns="http://www.w3.org/2000/svg">
<path d="M18.0669 3.00554C17.6175 2.55595 17.084 2.1993 16.4967 1.95597C15.9095 1.71264 15.28 1.5874 14.6444 1.5874C14.0087 1.5874 13.3792 1.71264 12.792 1.95597C12.2047 2.1993 11.6712 2.55595 11.2218 3.00554L10.2892 3.93817L9.35654 3.00554C8.44882 2.09782 7.21769 1.58787 5.93398 1.58787C4.65027 1.58787 3.41914 2.09782 2.51142 3.00554C1.6037 3.91326 1.09375 5.14439 1.09375 6.4281C1.09375 7.71181 1.6037 8.94294 2.51142 9.85066L3.44405 10.7833L10.2892 17.6284L17.1343 10.7833L18.0669 9.85066C18.5165 9.40128 18.8732 8.86772 19.1165 8.28047C19.3598 7.69322 19.4851 7.06377 19.4851 6.4281C19.4851 5.79243 19.3598 5.16299 19.1165 4.57574C18.8732 3.98848 18.5165 3.45493 18.0669 3.00554V3.00554Z" stroke="#5B7083" stroke-width="1.53261" stroke-linecap="round" stroke-linejoin="round"/>
</svg>
